<svg xmlns="http://www.w3.org/2000/svg" viewBox="190 430 610 140">
<g>
<path d="M 643.40 535.62 C643.40,537.22 643.97,538.00 645.14,538.00 C645.51,538.00 645.83,537.97 646.12,537.90 L 645.50 538.36 C635.17,545.92 625.01,549.07 611.54,548.86 C608.36,548.82 605.10,548.70 602.79,548.56 C602.64,548.31 602.36,547.93 602.00,547.50 C601.32,546.67 599.74,546.00 598.49,546.00 C597.25,546.00 594.94,545.33 593.36,544.51 C591.79,543.68 589.80,543.01 588.95,543.01 C588.10,543.00 586.97,542.57 586.45,542.05 C585.51,541.12 579.94,538.62 578.40,538.33 C577.40,537.33 576.43,536.20 575.51,535.00 C576.71,534.88 574.93,529.56 572.99,527.49 C571.27,525.65 570.35,525.10 570.28,525.70 C569.87,524.57 569.58,523.50 569.41,522.50 C569.19,521.12 568.99,519.78 568.83,518.50 C569.28,519.13 569.50,519.01 569.79,518.14 C570.24,516.77 569.40,515.52 568.55,516.14 C568.04,511.19 568.10,507.57 568.79,506.72 C569.33,506.05 570.09,503.16 570.47,500.30 C570.86,497.45 572.03,494.11 573.09,492.90 C574.14,491.69 575.01,490.43 575.02,490.10 C575.05,488.60 583.86,480.10 587.00,478.52 C594.16,474.92 611.76,472.58 620.50,474.06 C638.16,477.07 649.60,489.34 651.52,507.31 C651.41,506.93 651.27,506.58 651.10,506.28 C650.22,504.77 650.06,504.97 650.03,507.58 C650.01,509.28 650.34,511.01 650.75,511.43 C651.31,512.00 651.67,511.33 651.78,510.27 C652.06,514.15 651.81,515.51 650.89,516.09 C650.13,516.57 635.48,516.98 618.36,516.98 L 587.21 517.00 L 587.95 520.26 C589.54,527.33 594.55,531.50 602.75,532.57 C605.64,532.95 608.00,533.65 608.00,534.13 C608.00,534.61 610.03,535.00 612.50,535.00 C614.97,535.00 617.00,534.61 617.00,534.14 C617.00,533.67 619.68,533.00 622.97,532.66 C626.68,532.27 630.80,530.99 633.88,529.27 L 638.84 526.51 L 643.63 531.36 L 648.42 536.22 L 647.43 536.94 C647.61,536.44 647.48,535.78 647.01,535.02 C645.56,532.68 643.40,533.03 643.40,535.62 ZM 273.50 534.88 C270.46,534.50 266.15,532.87 262.49,530.72 C257.40,527.73 255.89,526.13 252.70,520.39 C250.63,516.66 248.79,512.68 248.62,511.55 C248.39,510.07 247.36,509.36 244.90,509.00 L 244.56 508.95 C245.36,508.85 246.00,508.57 246.00,508.12 C246.00,507.64 245.35,506.71 244.56,506.05 C243.77,505.40 242.82,503.46 242.45,501.75 C241.92,499.37 242.19,498.34 243.57,497.32 C245.28,496.08 245.25,496.00 243.19,496.00 C241.63,496.00 241.17,496.30 241.05,498.95 L 240.90 496.00 L 244.24 496.00 C246.84,496.00 247.94,495.38 249.26,493.14 C250.19,491.57 250.72,490.06 250.45,489.78 C250.18,489.51 250.64,488.72 251.48,488.02 C252.31,487.32 253.00,486.14 253.00,485.38 C253.00,484.62 253.45,484.00 254.00,484.00 C254.55,484.00 255.00,483.40 255.00,482.67 C255.00,480.81 260.39,476.19 263.46,475.42 C264.86,475.07 266.00,474.41 266.00,473.96 C266.00,472.26 270.93,471.66 285.67,471.58 C294.01,471.54 301.16,471.17 301.56,470.77 C302.45,469.88 294.98,461.55 289.86,457.71 C287.24,455.75 283.83,454.07 279.99,452.74 C280.00,452.70 280.00,452.66 280.00,452.62 C280.00,451.26 273.81,448.60 270.02,448.33 C265.39,447.99 265.97,448.62 272.45,450.66 C263.64,448.80 253.90,448.56 246.35,450.45 C239.93,452.06 237.08,453.30 227.38,458.65 C222.27,461.46 216.13,468.89 212.08,477.17 C211.52,478.31 211.00,479.30 210.51,480.15 L 210.87 478.77 L 208.49 481.01 C206.21,483.15 205.92,483.18 202.31,481.74 C197.90,479.98 197.40,477.73 200.61,474.00 C201.79,472.62 203.28,469.86 203.92,467.85 C204.57,465.84 206.17,463.03 207.48,461.62 C208.79,460.20 209.46,458.79 208.97,458.48 C208.81,458.38 208.60,458.39 208.35,458.50 C209.01,457.73 209.68,456.98 210.35,456.27 C210.95,455.64 211.55,455.03 212.14,454.44 C211.42,455.29 211.01,455.99 211.02,456.45 C211.02,457.03 211.47,456.83 212.00,456.00 C212.53,455.17 212.98,454.85 212.98,455.29 C213.01,456.70 217.00,453.97 217.00,452.54 C217.00,450.69 221.95,446.85 223.27,447.67 C223.85,448.02 224.01,447.83 223.64,447.23 C223.06,446.29 226.79,444.28 227.89,444.94 C228.10,445.07 228.55,444.74 228.89,444.21 C229.22,443.68 231.07,442.30 233.00,441.13 C234.48,440.23 235.35,439.62 235.62,439.30 C241.29,437.50 247.68,436.46 255.39,435.92 C265.05,435.25 271.79,435.55 277.53,437.12 C276.54,437.02 276.08,437.32 276.50,438.00 C276.84,438.55 278.33,438.97 279.81,438.93 C281.59,438.88 282.09,438.82 281.50,438.47 C283.02,439.09 284.49,439.82 285.97,440.66 C288.46,442.08 292.60,444.36 295.18,445.73 C305.13,451.01 316.86,466.06 320.46,478.16 C320.87,479.55 321.24,480.85 321.52,481.84 C321.41,481.64 321.28,481.41 321.12,481.17 C320.44,480.08 320.17,480.12 319.70,481.35 C319.38,482.18 317.63,483.05 315.81,483.27 C313.20,483.59 313.50,483.71 317.25,483.84 C317.46,483.85 317.66,483.85 317.86,483.86 C313.43,483.94 305.90,484.00 297.39,484.00 C274.26,484.00 272.55,484.13 269.05,486.09 C265.55,488.06 262.00,492.48 262.00,494.87 C262.00,495.54 266.15,496.04 273.25,496.22 L 278.73 496.36 C278.44,496.51 278.32,496.71 278.46,496.93 C278.77,497.44 277.79,498.05 276.27,498.28 L 273.50 498.70 L 276.50 498.87 C278.15,498.96 280.17,499.47 281.00,500.00 C281.83,500.53 282.56,500.98 282.63,500.98 C282.71,500.99 282.98,499.88 283.24,498.50 C283.45,497.44 283.49,496.82 283.19,496.47 L 284.50 496.50 L 284.80 502.75 L 285.10 509.00 L 273.55 509.00 C260.83,509.00 260.49,509.21 263.75,514.89 C266.96,520.50 269.11,520.93 295.20,521.23 C310.68,521.41 319.28,521.88 319.99,522.59 C320.79,523.39 320.51,525.23 319.00,529.28 L 316.91 534.87 L 311.70 535.50 C307.36,536.04 292.78,535.96 282.38,535.50 C293.54,535.94 311.78,535.87 312.82,535.18 C314.34,534.16 275.47,532.86 273.04,533.85 C272.05,534.25 272.76,534.66 275.00,534.99 C275.54,535.07 276.26,535.14 277.12,535.21 C275.69,535.11 274.46,535.00 273.50,534.88 ZM 357.54 525.75 C358.62,529.16 359.16,526.12 358.86,518.25 C358.73,514.84 358.79,511.59 359.00,509.74 L 359.00 530.97 L 385.75 531.23 L 412.50 531.50 L 412.80 538.48 C413.04,544.12 412.78,545.69 411.40,546.69 C410.14,547.62 401.11,547.94 375.53,547.97 C358.94,547.99 344.87,547.86 341.62,547.67 C342.69,546.36 342.86,536.43 342.76,502.71 C342.68,477.80 342.96,456.87 343.37,456.21 C343.83,455.46 343.53,455.00 342.58,455.00 C341.22,455.00 341.01,460.38 340.77,501.08 L 341.04 455.00 L 413.00 455.00 L 413.00 472.00 L 360.02 472.00 L 362.25 471.72 L 365.50 471.32 L 362.50 471.18 C357.50,470.93 356.65,472.15 356.35,479.93 C356.17,484.62 356.46,487.00 357.20,487.00 C357.82,487.00 357.58,487.81 356.65,488.83 C354.60,491.10 354.56,492.00 356.50,492.00 C357.33,492.00 358.00,492.45 358.00,493.00 C358.00,493.55 358.20,494.00 358.44,494.00 C358.68,494.00 358.83,492.76 358.77,491.25 C358.71,489.74 358.74,484.82 358.83,480.31 L 359.00 472.13 L 359.00 491.00 L 410.00 491.00 L 386.75 491.02 C373.96,491.02 362.90,491.41 362.17,491.88 C359.72,493.43 363.16,493.82 371.54,492.94 C382.83,491.76 389.88,491.78 388.00,493.00 C386.97,493.66 389.55,493.97 396.14,493.98 C406.87,494.00 407.00,494.09 407.00,501.08 L 407.00 505.00 L 402.50 505.00 C399.17,505.00 398.00,505.39 398.00,506.50 C398.00,507.67 399.33,508.00 404.00,508.00 L 359.46 508.00 C359.74,507.43 359.62,507.00 359.17,507.00 C357.87,507.00 356.84,509.93 357.66,511.26 C358.07,511.92 357.75,512.12 356.85,511.77 C355.60,511.29 355.51,512.17 356.26,517.85 C356.75,521.51 357.32,525.06 357.54,525.75 ZM 462.18 547.13 C461.46,546.68 460.74,545.67 460.59,544.90 C460.43,544.13 459.79,542.23 459.15,540.68 C458.52,539.14 458.00,537.50 458.00,537.06 C458.00,536.61 457.38,535.73 456.61,535.09 C455.85,534.46 454.69,531.82 454.03,529.22 C453.38,526.62 452.04,522.92 451.05,521.00 C450.07,519.08 448.81,516.38 448.26,515.00 C447.71,513.62 446.35,510.25 445.24,507.50 C444.12,504.75 442.41,500.48 441.42,498.00 C440.43,495.52 439.11,492.83 438.47,492.00 C438.23,491.69 437.86,491.01 437.41,490.10 C437.75,490.67 438.03,491.00 438.20,491.00 C439.34,491.00 439.19,489.24 437.98,488.49 C437.42,488.14 437.21,487.47 437.50,487.00 C437.79,486.53 436.84,484.42 435.39,482.32 C433.94,480.22 432.92,478.96 433.12,479.53 C433.28,479.95 433.90,481.61 434.64,483.62 C433.22,480.02 430.49,473.37 428.27,468.12 C425.86,462.42 424.12,457.13 424.41,456.37 C424.59,455.90 425.18,455.57 426.35,455.36 C426.19,455.72 426.27,456.53 426.56,457.29 C427.18,458.90 430.00,458.55 430.00,456.86 C430.00,456.22 428.94,455.48 427.95,455.17 C429.16,455.08 430.72,455.05 432.72,455.07 C437.00,455.11 441.34,455.47 442.36,455.87 C444.30,456.63 446.26,460.93 453.17,479.50 C457.70,491.68 459.04,494.94 462.82,503.00 C464.23,506.02 466.58,511.32 468.04,514.76 C470.48,520.54 470.79,520.88 472.19,519.26 C474.34,516.77 478.63,508.22 480.07,503.55 C480.21,503.10 480.37,502.62 480.55,502.11 C480.53,502.55 480.79,502.63 481.34,502.42 C482.04,502.16 483.11,500.04 483.73,497.72 C484.36,495.40 485.13,492.60 485.46,491.50 C485.70,490.70 485.30,491.32 484.63,492.61 C485.77,490.25 487.07,487.70 488.50,485.00 C489.81,482.52 490.91,479.79 490.94,478.93 C490.97,478.06 492.32,474.91 493.94,471.93 C495.55,468.94 497.10,465.26 497.37,463.74 C498.76,456.06 500.60,455.00 512.52,455.00 L 520.95 455.00 L 520.41 456.42 C520.56,455.36 520.11,455.00 518.78,455.00 C517.12,455.00 516.97,455.26 517.96,456.46 C518.63,457.26 518.84,458.45 518.43,459.11 C517.99,459.82 518.11,460.05 518.72,459.67 C518.95,459.53 519.20,459.26 519.43,458.91 C514.43,470.99 485.95,535.12 481.94,543.25 L 479.60 548.00 L 471.55 547.98 C467.12,547.98 462.91,547.59 462.18,547.13 ZM 698.50 548.00 C698.26,548.39 698.80,548.67 699.96,548.82 C697.75,548.79 695.64,548.72 693.82,548.60 C693.67,548.35 693.38,547.96 693.00,547.50 C692.32,546.67 691.00,546.00 690.08,546.00 C689.15,546.00 687.97,545.61 687.45,545.12 C686.64,544.38 676.19,543.07 674.29,543.37 C673.82,543.13 673.39,542.89 673.01,542.66 C671.10,541.47 668.63,540.04 667.52,539.47 C664.57,537.97 664.57,535.61 667.51,532.90 C668.95,531.58 670.53,529.49 671.03,528.25 C672.20,525.40 673.91,525.42 679.78,528.36 C684.94,530.95 688.50,532.11 697.25,534.04 C701.91,535.08 704.09,535.08 708.75,534.04 C718.79,531.81 721.26,529.84 720.30,524.80 C719.62,521.26 716.48,520.08 703.02,518.36 C687.33,516.34 677.88,513.88 672.71,510.31 C672.28,508.48 667.48,499.57 666.57,499.03 C666.25,496.77 666.36,494.90 667.07,494.46 C667.58,494.14 668.00,493.02 668.00,491.97 C668.00,489.11 671.87,482.25 674.77,479.97 C676.17,478.86 678.49,477.70 679.91,477.38 C681.34,477.07 684.30,476.22 686.50,475.50 C691.22,473.96 692.52,473.84 705.00,473.85 C705.67,473.85 706.34,473.86 707.01,473.89 C707.00,473.92 707.00,473.96 707.00,474.00 C707.00,474.55 707.70,475.00 708.56,475.00 C709.40,475.00 709.83,474.57 709.52,474.03 C718.20,474.69 726.83,477.20 733.28,481.00 L 736.90 483.14 L 733.93 487.96 C733.13,489.26 732.46,490.33 731.87,491.21 C731.95,491.03 732.00,490.89 732.00,490.77 C732.00,490.27 731.32,490.54 730.49,491.36 C729.47,492.38 727.77,492.72 725.24,492.39 L 721.50 491.91 L 724.50 493.37 C724.54,493.39 724.59,493.42 724.63,493.44 C724.03,493.18 723.37,492.87 722.63,492.52 C712.78,487.86 697.97,486.97 689.35,490.52 C682.99,493.14 684.56,499.35 691.89,500.55 C693.87,500.88 696.47,501.61 697.65,502.19 C698.84,502.77 700.21,502.99 700.69,502.69 C702.33,501.68 722.84,505.74 727.70,508.04 C733.91,510.97 735.85,512.70 737.58,516.85 C739.26,520.86 739.44,529.71 737.93,533.67 C735.78,539.34 727.12,545.38 717.50,547.93 C715.64,548.42 710.68,548.73 705.34,548.81 C706.52,548.68 706.50,548.43 705.50,548.00 C702.72,546.81 699.24,546.81 698.50,548.00 ZM 303.20 548.80 C304.83,550.43 305.40,550.33 307.50,548.00 C307.70,547.78 307.87,547.59 308.02,547.41 L 306.36 549.59 C303.98,552.72 299.02,556.65 289.14,563.26 C283.27,567.19 268.17,570.53 257.49,570.70 C257.72,570.47 257.45,570.04 256.91,569.39 C255.05,567.15 251.65,566.01 250.81,567.33 C250.43,567.93 248.43,568.30 246.35,568.16 C244.02,568.01 243.02,568.11 243.16,568.36 C238.97,567.05 234.38,565.24 229.62,563.00 C222.74,559.76 219.74,557.54 212.87,550.59 C204.29,541.91 197.50,531.69 196.49,525.92 C196.17,524.13 195.61,522.18 195.23,521.58 C194.79,520.88 194.35,519.47 193.94,517.66 C194.52,518.35 194.51,516.82 194.20,508.45 C193.96,502.00 194.23,498.43 195.04,497.45 C196.01,496.29 195.93,496.00 194.67,496.00 C193.33,496.00 192.48,498.07 192.23,501.57 C192.26,500.78 192.32,500.10 192.42,499.56 L 193.13 495.80 L 205.46 496.15 C215.08,496.42 218.20,496.86 219.65,498.13 C220.67,499.03 222.40,500.05 223.50,500.41 C227.46,501.69 233.82,508.94 238.09,517.02 C240.20,521.02 240.51,523.20 240.98,537.42 L 241.50 553.34 L 244.50 554.24 C246.15,554.74 248.40,555.57 249.50,556.09 C252.05,557.30 267.97,557.86 268.64,556.77 C268.92,556.32 269.68,556.03 270.33,556.14 C272.67,556.51 277.42,554.63 284.88,550.37 C292.18,546.20 292.84,546.01 300.80,546.01 L 305.23 546.00 C301.80,546.06 301.25,546.85 303.20,548.80 ZM 801.28 478.94 C802.16,481.26 803.05,482.24 803.50,481.81 L 803.50 491.50 L 780.00 490.81 L 780.00 527.20 L 782.87 529.88 C785.35,532.20 789.83,533.54 793.50,533.07 C801.63,532.03 803.05,532.37 803.63,535.50 C803.73,536.05 804.39,538.62 805.10,541.22 C805.82,543.81 806.18,546.15 805.92,546.41 C805.05,547.29 792.54,548.99 787.50,548.91 C786.63,548.90 785.57,548.82 784.43,548.68 C784.67,548.41 784.46,547.85 784.00,547.00 C783.24,545.58 781.86,544.98 779.21,544.92 C777.17,544.88 774.66,544.69 773.64,544.50 C771.50,544.09 767.00,540.13 767.00,538.65 C767.00,538.11 766.26,536.84 765.35,535.83 C763.36,533.64 763.14,531.15 763.06,510.75 C763.02,500.87 762.62,495.00 761.99,495.00 C761.79,495.00 761.62,495.59 761.50,496.63 L 761.50 491.00 L 756.29 491.00 C755.28,491.00 754.41,490.96 753.66,490.87 C754.14,490.90 754.68,490.90 755.29,490.88 C758.56,490.79 758.94,490.62 757.00,490.13 C752.11,488.90 751.06,487.65 750.78,482.73 C750.64,480.43 750.27,478.51 749.89,478.09 C750.95,476.48 753.11,476.00 757.18,476.00 L 761.50 476.00 L 761.50 472.23 C761.62,472.74 761.78,473.00 761.96,473.00 C762.82,473.00 763.20,471.53 763.24,468.00 C763.25,467.73 762.96,465.18 762.60,462.34 C762.09,458.22 762.30,456.85 763.66,455.49 C764.33,454.81 764.72,454.41 764.81,454.19 L 769.00 453.80 C774.53,453.28 777.29,452.91 778.66,454.12 C780.11,455.40 780.00,458.46 780.00,465.02 L 780.00 475.91 L 783.39 476.54 C785.25,476.89 790.54,477.03 795.14,476.84 L 800.60 476.62 C800.61,477.04 800.84,477.77 801.28,478.94 ZM 534.01 547.29 C534.02,546.85 533.82,531.19 533.57,512.47 C533.37,497.47 533.39,484.34 533.61,479.40 C533.64,479.50 533.67,479.59 533.71,479.68 C534.12,480.75 534.55,480.79 535.65,479.88 C536.48,479.19 539.98,478.75 544.03,478.83 C549.57,478.93 551.00,478.65 551.00,477.48 C551.00,475.95 550.02,475.76 541.53,475.97 C542.17,475.93 542.83,475.89 543.50,475.87 L 552.50 475.50 L 552.50 492.22 C552.37,488.33 552.21,486.64 552.06,488.00 C551.73,491.02 551.64,504.13 551.87,517.12 C552.14,532.30 551.91,541.83 551.23,543.78 C550.64,545.46 550.41,547.08 550.72,547.39 C550.78,547.45 550.84,547.50 550.90,547.55 L 543.25 547.79 C538.16,547.95 534.01,547.72 534.01,547.29 ZM 631.81 503.52 C632.22,503.12 632.00,502.10 631.36,500.77 C631.53,500.91 631.76,501.00 632.00,501.00 C634.82,501.00 630.35,494.12 626.59,492.67 C625.34,492.19 625.74,493.07 627.89,495.52 C629.60,497.47 631.00,499.50 631.00,500.03 C631.00,500.05 631.00,500.07 631.00,500.08 C629.81,497.92 627.71,495.18 625.39,493.00 C621.21,489.09 620.52,488.81 613.63,488.29 C605.39,487.67 597.26,489.68 593.12,493.38 C590.10,496.06 586.75,503.23 588.11,504.07 C589.23,504.76 631.10,504.23 631.81,503.52 ZM 228.24 535.25 C227.90,526.53 226.48,520.45 223.64,516.32 C226.56,519.28 228.18,520.17 225.87,517.28 C222.48,513.04 219.18,510.00 217.96,510.00 C217.23,510.00 215.67,509.10 214.50,508.00 C212.71,506.32 212.10,506.21 210.61,507.29 C209.26,508.29 209.34,508.63 212.25,509.44 C209.29,508.91 206.00,508.75 206.00,509.32 C206.00,513.09 208.98,523.03 211.62,528.08 C216.07,536.56 224.55,545.79 228.09,545.97 C228.41,545.99 228.48,541.16 228.24,535.25 ZM 540.00 464.30 C537.94,463.55 534.98,460.69 533.12,458.00 C533.67,457.99 533.81,457.49 533.43,456.89 C533.06,456.29 532.77,453.70 532.80,451.14 C532.83,447.49 532.74,446.91 532.09,448.43 C532.75,446.65 533.81,445.03 535.14,443.88 C539.95,439.71 550.27,440.90 552.97,445.94 C554.50,448.80 554.22,455.68 552.43,459.13 C551.02,461.86 547.91,463.89 544.75,464.53 C544.91,464.39 545.00,464.21 545.00,464.00 C545.00,463.45 543.31,463.03 541.25,463.07 C538.24,463.13 537.90,463.31 539.50,464.00 C540.18,464.29 540.86,464.51 541.49,464.66 C540.98,464.59 540.48,464.47 540.00,464.30 ZM 595.50 516.00 C593.85,516.42 602.85,516.77 615.50,516.78 C628.40,516.79 637.40,516.45 636.00,516.00 C632.82,514.98 599.50,514.98 595.50,516.00 ZM 409.25 458.41 C411.59,460.62 412.96,460.01 412.98,456.75 C413.00,455.47 412.20,455.00 410.00,455.00 C406.41,455.00 406.28,455.61 409.25,458.41 ZM 260.60 497.16 C260.94,497.72 262.19,497.92 263.36,497.60 C264.54,497.29 266.62,496.95 268.00,496.86 C269.38,496.77 268.48,496.41 266.00,496.06 C261.01,495.36 259.66,495.63 260.60,497.16 ZM 471.00 547.00 C469.89,547.72 470.48,547.97 473.31,547.98 C475.60,547.99 476.87,547.60 476.50,547.00 C475.72,545.74 472.96,545.74 471.00,547.00 ZM 408.00 471.11 C408.00,471.60 408.90,472.00 410.00,472.00 C411.11,472.00 412.00,471.33 412.00,470.50 C412.00,468.82 411.82,468.75 409.58,469.61 C408.71,469.94 408.00,470.62 408.00,471.11 ZM 514.09 457.08 C514.87,457.57 515.54,457.98 515.58,457.98 C515.63,457.99 515.67,457.33 515.67,456.50 C515.67,454.76 513.17,454.55 511.00,456.11 C509.69,457.05 509.70,457.12 511.09,456.69 C511.97,456.41 513.32,456.59 514.09,457.08 ZM 227.18 523.00 C228.10,525.60 228.52,526.02 228.81,524.63 C229.02,523.60 228.46,522.03 227.56,521.13 C226.05,519.62 226.02,519.77 227.18,523.00 ZM 752.64 478.50 C752.29,479.41 752.64,480.00 753.53,480.00 C754.34,480.00 755.00,479.33 755.00,478.50 C755.00,477.67 754.60,477.00 754.11,477.00 C753.62,477.00 752.95,477.67 752.64,478.50 ZM 216.52 450.32 C220.12,447.17 223.71,444.65 227.55,442.65 C223.77,444.84 219.68,447.71 216.52,450.32 ZM 552.50 543.18 L 552.50 547.50 L 551.65 547.53 C552.03,547.07 552.31,545.74 552.50,543.18 ZM 761.50 457.90 L 761.50 454.50 L 762.73 454.38 C762.05,454.76 761.71,455.62 761.50,457.90 ZM 762.86 533.16 C762.21,530.75 761.82,526.81 761.63,520.51 C761.93,525.95 762.35,530.78 762.86,533.16 ZM 196.00 480.87 C196.00,480.84 196.00,480.80 196.00,480.77 C196.00,478.53 197.48,474.80 199.80,470.67 C197.67,474.79 196.02,478.85 196.00,480.87 ZM 802.40 476.54 L 803.50 476.50 L 803.50 478.36 C803.26,477.59 802.86,476.93 802.40,476.54 ZM 749.95 488.89 C749.22,487.62 749.00,485.64 749.00,482.60 C749.00,482.32 749.00,482.04 749.01,481.78 C749.00,484.35 749.34,487.53 749.95,488.89 ZM 251.50 570.37 C250.37,570.19 249.17,569.96 247.93,569.67 C248.29,569.73 248.67,569.80 249.06,569.86 C251.04,570.19 252.60,570.44 253.82,570.62 C253.00,570.56 252.22,570.48 251.50,570.37 ZM 690.50 548.30 C688.36,548.02 685.77,547.43 683.20,546.69 C685.27,547.24 687.28,547.72 688.76,547.97 C689.64,548.12 690.49,548.26 691.23,548.39 C690.97,548.36 690.73,548.33 690.50,548.30 ZM 321.85 483.06 C321.95,483.41 322.00,483.63 322.00,483.68 C322.00,483.72 321.47,483.76 320.49,483.79 C321.34,483.68 321.77,483.46 321.85,483.06 ZM 777.07 547.24 C772.41,545.87 768.55,543.16 765.92,539.54 C768.58,543.13 772.52,545.90 777.07,547.24 ZM 308.56 546.71 C308.90,546.11 308.36,546.02 306.55,546.00 L 309.10 546.00 L 308.56 546.71 ZM 667.83 504.00 C668.36,505.19 668.98,506.40 669.58,507.36 C669.40,507.11 669.22,506.86 669.07,506.61 C668.61,505.87 668.19,504.97 667.83,504.00 ZM 241.67 508.33 C241.76,508.42 241.86,508.50 241.99,508.57 L 241.50 508.50 L 241.47 507.88 C241.53,508.11 241.60,508.27 241.67,508.33 ZM 531.47 454.68 C531.46,454.64 531.45,454.60 531.44,454.55 C531.25,453.49 531.23,452.36 531.38,451.23 C531.27,452.39 531.29,453.66 531.47,454.68 ZM 533.75 477.57 C533.77,477.45 533.78,477.37 533.81,477.34 C533.88,477.22 534.09,477.10 534.41,476.99 C534.12,477.16 533.90,477.35 533.75,477.57 ZM 582.73 541.77 C582.37,541.55 582.02,541.33 581.70,541.11 C582.03,541.32 582.38,541.54 582.73,541.77 ZM 600.00 548.31 C599.83,548.28 599.67,548.25 599.50,548.22 C599.67,548.25 599.83,548.28 600.00,548.31 C600.02,548.31 600.04,548.32 600.07,548.32 C600.04,548.32 600.02,548.31 600.00,548.31 Z" fill="rgba(2,7,16,1)"/>
<path d="M 398.00 506.50 C398.00,505.39 399.17,505.00 402.50,505.00 L 407.00 505.00 L 407.00 501.08 C407.00,494.09 406.87,494.00 396.14,493.98 C389.55,493.97 386.97,493.66 388.00,493.00 C389.88,491.78 382.83,491.76 371.54,492.94 C363.16,493.82 359.72,493.43 362.17,491.88 C362.90,491.41 373.96,491.02 386.75,491.02 L 410.00 491.00 L 410.00 508.00 L 404.00 508.00 C399.33,508.00 398.00,507.67 398.00,506.50 ZM 358.00 493.00 C358.00,492.45 357.33,492.00 356.50,492.00 C354.56,492.00 354.60,491.10 356.65,488.83 C357.58,487.81 357.82,487.00 357.20,487.00 C356.46,487.00 356.17,484.62 356.35,479.93 C356.65,472.15 357.50,470.93 362.50,471.18 L 365.50 471.32 L 359.00 472.13 L 358.83 480.31 C358.74,484.82 358.71,489.74 358.77,491.25 C358.83,492.76 358.68,494.00 358.44,494.00 C358.20,494.00 358.00,493.55 358.00,493.00 ZM 533.71 479.68 C532.73,477.13 534.51,476.16 540.51,476.00 C549.94,475.74 551.00,475.89 551.00,477.48 C551.00,478.65 549.57,478.93 544.03,478.83 C539.98,478.75 536.48,479.19 535.65,479.88 C534.55,480.79 534.12,480.75 533.71,479.68 ZM 357.54 525.75 C357.32,525.06 356.75,521.51 356.26,517.85 C355.51,512.17 355.60,511.29 356.85,511.77 C357.75,512.12 358.07,511.92 357.66,511.26 C356.84,509.93 357.87,507.00 359.17,507.00 C359.69,507.00 359.76,507.56 359.32,508.25 C358.88,508.94 358.67,513.44 358.86,518.25 C359.16,526.12 358.62,529.16 357.54,525.75 ZM 281.00 500.00 C280.17,499.47 278.15,498.96 276.50,498.87 L 273.50 498.70 L 276.27 498.28 C277.79,498.05 278.77,497.44 278.46,496.93 C278.14,496.42 279.20,496.00 280.80,496.00 C283.38,496.00 283.67,496.29 283.24,498.50 C282.98,499.88 282.71,500.99 282.63,500.98 C282.56,500.98 281.83,500.53 281.00,500.00 ZM 409.25 458.41 C406.28,455.61 406.41,455.00 410.00,455.00 C412.20,455.00 413.00,455.47 412.98,456.75 C412.96,460.01 411.59,460.62 409.25,458.41 ZM 303.20 548.80 C301.17,546.77 301.85,546.00 305.65,546.00 C309.25,546.00 309.28,546.03 307.50,548.00 C305.40,550.33 304.83,550.43 303.20,548.80 ZM 643.40 535.62 C643.40,533.03 645.56,532.68 647.01,535.02 C648.11,536.80 647.35,538.00 645.14,538.00 C643.97,538.00 643.40,537.22 643.40,535.62 ZM 260.60 497.16 C259.66,495.63 261.01,495.36 266.00,496.06 C268.48,496.41 269.38,496.77 268.00,496.86 C266.62,496.95 264.54,497.29 263.36,497.60 C262.19,497.92 260.94,497.72 260.60,497.16 ZM 426.56 457.29 C426.23,456.42 426.17,455.50 426.43,455.23 C427.16,454.51 430.00,455.81 430.00,456.86 C430.00,458.55 427.18,458.90 426.56,457.29 ZM 471.00 547.00 C472.96,545.74 475.72,545.74 476.50,547.00 C476.87,547.60 475.60,547.99 473.31,547.98 C470.48,547.97 469.89,547.72 471.00,547.00 ZM 408.00 471.11 C408.00,470.62 408.71,469.94 409.58,469.61 C411.82,468.75 412.00,468.82 412.00,470.50 C412.00,471.33 411.11,472.00 410.00,472.00 C408.90,472.00 408.00,471.60 408.00,471.11 ZM 514.09 457.08 C513.32,456.59 511.97,456.41 511.09,456.69 C509.70,457.12 509.69,457.05 511.00,456.11 C513.17,454.55 515.67,454.76 515.67,456.50 C515.67,457.33 515.63,457.99 515.58,457.98 C515.54,457.98 514.87,457.57 514.09,457.08 ZM 752.64 478.50 C752.95,477.67 753.62,477.00 754.11,477.00 C754.60,477.00 755.00,477.67 755.00,478.50 C755.00,479.33 754.34,480.00 753.53,480.00 C752.64,480.00 752.29,479.41 752.64,478.50 Z" fill="rgba(6,15,22,1)"/>
<path d="M 249.06 569.86 C242.61,568.79 241.03,567.80 246.35,568.16 C248.43,568.30 250.43,567.93 250.81,567.33 C251.65,566.01 255.05,567.15 256.91,569.39 C258.47,571.28 257.81,571.32 249.06,569.86 ZM 600.00 548.31 C594.62,547.41 587.28,544.63 582.75,541.78 C580.14,540.14 578.00,538.61 578.00,538.38 C578.00,537.77 585.36,540.96 586.45,542.05 C586.97,542.57 588.10,543.00 588.95,543.01 C589.80,543.01 591.79,543.68 593.36,544.51 C594.94,545.33 597.25,546.00 598.49,546.00 C599.74,546.00 601.32,546.67 602.00,547.50 C602.68,548.33 603.08,548.94 602.87,548.86 C602.67,548.79 601.38,548.54 600.00,548.31 ZM 688.76 547.97 C684.07,547.18 674.00,544.14 674.00,543.51 C674.00,542.80 686.56,544.31 687.45,545.12 C687.97,545.61 689.15,546.00 690.08,546.00 C691.00,546.00 692.32,546.67 693.00,547.50 C693.68,548.33 694.08,548.95 693.87,548.88 C693.67,548.82 691.37,548.41 688.76,547.97 ZM 698.50 548.00 C699.24,546.81 702.72,546.81 705.50,548.00 C707.00,548.64 706.30,548.88 702.69,548.93 C699.72,548.97 698.12,548.62 698.50,548.00 ZM 777.07 547.24 C770.37,545.27 764.99,540.17 763.06,533.98 C761.36,528.49 760.44,495.00 761.99,495.00 C762.62,495.00 763.02,500.87 763.06,510.75 C763.14,531.15 763.36,533.64 765.35,535.83 C766.26,536.84 767.00,538.11 767.00,538.65 C767.00,540.13 771.50,544.09 773.64,544.50 C774.66,544.69 777.17,544.88 779.21,544.92 C781.86,544.98 783.24,545.58 784.00,547.00 C785.31,549.44 784.62,549.46 777.07,547.24 ZM 340.92 547.58 C340.69,547.36 340.62,526.43 340.77,501.08 C341.01,460.38 341.22,455.00 342.58,455.00 C343.53,455.00 343.83,455.46 343.37,456.21 C342.96,456.87 342.68,477.80 342.76,502.71 C342.88,542.84 342.61,549.28 340.92,547.58 ZM 550.72 547.39 C550.41,547.08 550.64,545.46 551.23,543.78 C551.91,541.83 552.14,532.30 551.87,517.12 C551.64,504.13 551.73,491.02 552.06,488.00 C552.40,484.98 552.75,496.99 552.84,514.69 C552.98,543.53 552.61,549.28 550.72,547.39 ZM 275.00 534.99 C272.76,534.66 272.05,534.25 273.04,533.85 C275.47,532.86 314.34,534.16 312.82,535.18 C311.48,536.08 281.39,535.92 275.00,534.99 ZM 572.42 530.45 C569.35,525.22 569.61,523.89 572.99,527.49 C574.96,529.58 576.75,535.00 575.47,535.00 C575.26,535.00 573.89,532.95 572.42,530.45 ZM 227.18 523.00 C226.02,519.77 226.05,519.62 227.56,521.13 C228.46,522.03 229.02,523.60 228.81,524.63 C228.52,526.02 228.10,525.60 227.18,523.00 ZM 222.44 515.07 C219.84,512.25 217.39,510.77 213.83,509.86 C209.40,508.73 209.05,508.44 210.61,507.29 C212.10,506.21 212.71,506.32 214.50,508.00 C215.67,509.10 217.23,510.00 217.96,510.00 C219.18,510.00 222.48,513.04 225.87,517.28 C228.48,520.54 226.07,518.99 222.44,515.07 ZM 568.58 518.13 C568.15,517.44 568.07,516.60 568.40,516.27 C569.29,515.37 570.27,516.69 569.79,518.14 C569.45,519.15 569.21,519.15 568.58,518.13 ZM 193.66 517.25 C193.41,516.84 192.88,513.47 192.49,509.77 C191.61,501.52 192.48,496.00 194.67,496.00 C195.93,496.00 196.01,496.29 195.04,497.45 C194.23,498.43 193.96,502.00 194.20,508.45 C194.55,518.00 194.52,518.65 193.66,517.25 ZM 595.50 516.00 C599.50,514.98 632.82,514.98 636.00,516.00 C637.40,516.45 628.40,516.79 615.50,516.78 C602.85,516.77 593.85,516.42 595.50,516.00 ZM 650.75 511.43 C650.34,511.01 650.01,509.28 650.03,507.58 C650.06,504.97 650.22,504.77 651.10,506.28 C652.24,508.24 651.94,512.64 650.75,511.43 ZM 670.04 508.05 C668.07,505.29 665.61,499.00 666.50,499.00 C667.23,499.00 673.19,510.14 672.72,510.62 C672.44,510.89 671.24,509.74 670.04,508.05 ZM 241.67 508.33 C241.30,507.97 241.00,505.04 241.00,501.83 C241.00,496.50 241.19,496.00 243.19,496.00 C245.25,496.00 245.28,496.08 243.57,497.32 C242.19,498.34 241.92,499.37 242.45,501.75 C242.82,503.46 243.77,505.40 244.56,506.05 C245.35,506.71 246.00,507.64 246.00,508.12 C246.00,509.15 242.64,509.31 241.67,508.33 ZM 480.95 500.70 C482.53,496.69 486.06,489.47 485.46,491.50 C485.13,492.60 484.36,495.40 483.73,497.72 C483.11,500.04 482.04,502.16 481.34,502.42 C480.42,502.78 480.32,502.32 480.95,500.70 ZM 631.00 500.03 C631.00,499.50 629.60,497.47 627.89,495.52 C625.74,493.07 625.34,492.19 626.59,492.67 C630.35,494.12 634.82,501.00 632.00,501.00 C631.45,501.00 631.00,500.57 631.00,500.03 ZM 724.50 493.37 L 721.50 491.91 L 725.24 492.39 C727.77,492.72 729.47,492.38 730.49,491.36 C731.32,490.54 732.00,490.27 732.00,490.77 C732.00,491.70 728.69,495.07 727.92,494.92 C727.69,494.87 726.15,494.18 724.50,493.37 ZM 435.45 485.78 C434.38,482.91 433.33,480.09 433.12,479.53 C432.92,478.96 433.94,480.22 435.39,482.32 C436.84,484.42 437.79,486.53 437.50,487.00 C437.21,487.47 437.42,488.14 437.98,488.49 C439.19,489.24 439.34,491.00 438.20,491.00 C437.76,491.00 436.52,488.65 435.45,485.78 ZM 750.04 489.07 C748.85,486.85 748.62,478.00 749.75,478.00 C750.16,478.01 750.62,480.13 750.78,482.73 C751.06,487.65 752.11,488.90 757.00,490.13 C758.94,490.62 758.56,490.79 755.29,490.88 C752.06,490.97 750.83,490.54 750.04,489.07 ZM 198.75 484.28 C196.46,483.94 196.00,483.37 196.00,480.91 C196.00,475.78 206.78,457.13 208.97,458.48 C209.46,458.79 208.79,460.20 207.48,461.62 C206.17,463.03 204.57,465.84 203.92,467.85 C203.28,469.86 201.79,472.62 200.61,474.00 C197.40,477.73 197.90,479.98 202.31,481.74 C205.92,483.18 206.21,483.15 208.49,481.01 L 210.87 478.77 L 210.30 480.96 C209.98,482.17 208.63,483.57 207.30,484.08 C204.84,485.01 203.72,485.04 198.75,484.28 ZM 315.81 483.27 C317.63,483.05 319.38,482.18 319.70,481.35 C320.17,480.12 320.44,480.08 321.12,481.17 C322.66,483.58 322.05,484.00 317.25,483.84 C313.50,483.71 313.20,483.59 315.81,483.27 ZM 801.28 478.94 C800.28,476.29 800.34,475.92 801.73,476.19 C802.61,476.36 803.50,477.73 803.70,479.25 C804.19,482.94 802.72,482.75 801.28,478.94 ZM 707.00 474.00 C707.00,473.45 707.42,473.00 707.94,473.00 C708.46,473.00 709.16,473.45 709.50,474.00 C709.84,474.55 709.42,475.00 708.56,475.00 C707.70,475.00 707.00,474.55 707.00,474.00 ZM 761.21 463.76 C761.47,455.55 761.72,454.48 763.43,454.15 C765.25,453.81 765.26,453.88 763.66,455.49 C762.30,456.85 762.09,458.22 762.60,462.34 C762.96,465.18 763.25,467.73 763.24,468.00 C763.20,471.53 762.82,473.00 761.96,473.00 C761.30,473.00 761.03,469.66 761.21,463.76 ZM 539.50 464.00 C537.90,463.31 538.24,463.13 541.25,463.07 C543.31,463.03 545.00,463.45 545.00,464.00 C545.00,465.19 542.28,465.19 539.50,464.00 ZM 518.43 459.11 C518.84,458.45 518.63,457.26 517.96,456.46 C516.97,455.26 517.12,455.00 518.78,455.00 C520.33,455.00 520.69,455.48 520.29,457.02 C520.00,458.12 519.29,459.32 518.72,459.67 C518.11,460.05 517.99,459.82 518.43,459.11 ZM 531.48 454.75 C531.15,452.96 531.32,450.38 531.86,449.00 C532.71,446.82 532.83,447.10 532.80,451.14 C532.77,453.70 533.06,456.29 533.43,456.89 C533.81,457.50 533.66,458.00 533.10,458.00 C532.55,458.00 531.82,456.54 531.48,454.75 ZM 211.02 456.45 C210.98,453.82 224.27,443.67 232.30,440.21 C236.57,438.36 236.89,438.77 233.00,441.13 C231.07,442.30 229.22,443.68 228.89,444.21 C228.55,444.74 228.10,445.07 227.89,444.94 C226.79,444.28 223.06,446.29 223.64,447.23 C224.01,447.83 223.85,448.02 223.27,447.67 C221.95,446.85 217.00,450.69 217.00,452.54 C217.00,453.97 213.01,456.70 212.98,455.29 C212.98,454.85 212.53,455.17 212.00,456.00 C211.47,456.83 211.02,457.03 211.02,456.45 ZM 274.50 451.29 C266.14,448.75 264.94,447.96 270.02,448.33 C273.81,448.60 280.00,451.26 280.00,452.62 C280.00,452.83 279.89,452.96 279.75,452.90 C279.61,452.85 277.25,452.13 274.50,451.29 ZM 276.50 438.00 C275.76,436.81 277.72,436.81 280.50,438.00 C282.29,438.77 282.21,438.87 279.81,438.93 C278.33,438.97 276.84,438.55 276.50,438.00 Z" fill="rgba(1,3,6,1)"/>
</g>
</svg>